HIERARCHY
ROOT Hips
{
    OFFSET 0.000000 0.000000 0.000000
    CHANNELS 6 Xposition Yposition Zposition Zrotation Xrotation Yrotation
    JOINT Spine
    {
        OFFSET -0.000000 7.236184 0.000000
        CHANNELS 3 Zrotation Xrotation Yrotation
        JOINT Spine1
        {
            OFFSET -0.000000 20.420147 0.000000
            CHANNELS 3 Zrotation Xrotation Yrotation
            JOINT Neck
            {
                OFFSET -0.000000 20.336288 1.848754
                CHANNELS 3 Zrotation Xrotation Yrotation
                JOINT Head
                {
                    OFFSET -0.000000 12.354461 -1.764923
                    CHANNELS 3 Zrotation Xrotation Yrotation
                    End Site
                    {
                        OFFSET -0.000000 22.061537 0.000000
                    }
                }
            }
            JOINT LeftShoulder
            {
                OFFSET 3.573296 18.396038 -0.314103
                CHANNELS 3 Zrotation Xrotation Yrotation
                JOINT LeftArm
                {
                    OFFSET 10.880760 0.000000 0.000000
                    CHANNELS 3 Zrotation Xrotation Yrotation
                    JOINT LeftForeArm
                    {
                        OFFSET 27.185530 0.000000 0.000000
                        CHANNELS 3 Zrotation Xrotation Yrotation
                        JOINT LeftHand
                        {
                            OFFSET 27.825975 0.000000 0.000000
                            CHANNELS 3 Zrotation Xrotation Yrotation
                            End Site
                            {
                                OFFSET 13.236923 0.000000 0.000000
                            }
                        }
                    }
                }
            }
            JOINT RightShoulder
            {
                OFFSET -3.474926 18.396038 -0.314103
                CHANNELS 3 Zrotation Xrotation Yrotation
                JOINT RightArm
                {
                    OFFSET -10.880760 0.000000 0.000000
                    CHANNELS 3 Zrotation Xrotation Yrotation
                    JOINT RightForeArm
                    {
                        OFFSET -27.185530 0.000000 0.000000
                        CHANNELS 3 Zrotation Xrotation Yrotation
                        JOINT RightHand
                        {
                            OFFSET -27.825975 0.000000 0.000000
                            CHANNELS 3 Zrotation Xrotation Yrotation
                            End Site
                            {
                                OFFSET -13.236923 0.000000 0.000000
                            }
                        }
                    }
                }
            }
        }
    }
    JOINT LeftUpLeg
    {
        OFFSET 8.824615 0.000000 0.000000
        CHANNELS 3 Zrotation Xrotation Yrotation
        JOINT LeftLeg
        {
            OFFSET -0.000000 -35.111282 0.000000
            CHANNELS 3 Zrotation Xrotation Yrotation
            JOINT LeftFoot
            {
                OFFSET -0.000000 -42.324711 0.000000
                CHANNELS 3 Zrotation Xrotation Yrotation
                JOINT LeftToeBase
                {
                    OFFSET -0.000000 -5.735999 13.236923
                    CHANNELS 3 Zrotation Xrotation Yrotation
                    End Site
                    {
                        OFFSET -0.000000 0.000000 3.529846
                    }
                }
            }
        }
    }
    JOINT RightUpLeg
    {
        OFFSET -8.824615 0.000000 0.000000
        CHANNELS 3 Zrotation Xrotation Yrotation
        JOINT RightLeg
        {
            OFFSET -0.000000 -35.111282 0.000000
            CHANNELS 3 Zrotation Xrotation Yrotation
            JOINT RightFoot
            {
                OFFSET -0.000000 -42.324711 0.000000
                CHANNELS 3 Zrotation Xrotation Yrotation
                JOINT RightToeBase
                {
                    OFFSET -0.000000 -5.735999 13.236923
                    CHANNELS 3 Zrotation Xrotation Yrotation
                    End Site
                    {
                        OFFSET -0.000000 0.000000 3.529846
                    }
                }
            }
        }
    }
}
MOTION
Frames:    7
Frame Time:    0.008333
-1.540065    81.972687    95.025208    0.893843    -6.174341    -174.515106    1.107551    -16.109173    0.858960    -3.704506    6.990001    0.928544    4.179645    6.683573    -6.185815    7.910447    5.093017    -6.033358    1.285543    17.660530    -3.675806    -44.160980    46.409946    -39.270355    -3.030511    -3.763620    -17.492367    16.452412    -3.965672    1.824754    -0.520829    6.912261    -1.129186    42.982582    -20.015177    28.727295    -44.905972    -38.272213    78.378929    -25.032295    -0.670158    -2.868592    4.576294    -4.345761    -1.469782    -2.418788    6.993009    -0.606396    0.061042    -9.929458    -9.378162    -0.971084    1.771648    1.073033    -2.176450    -0.283610    -1.330595    12.367723    8.456755    -12.604326    0.000000    0.000000    0.000000    0.000000    0.000000    0.000000    
-1.526580    81.970825    95.022453    0.893646    -6.167123    -174.519699    1.104779    -16.106480    0.873910    -3.747015    7.004028    0.947015    4.162858    6.662546    -6.185796    7.884253    5.192068    -6.042050    1.296023    17.684061    -3.656766    -44.193737    46.359760    -39.235023    -3.048061    -3.845027    -17.508102    16.423162    -4.047959    1.843600    -0.493136    6.892737    -1.093600    43.157227    -20.153549    28.986683    -44.953335    -38.131264    78.005234    -25.332203    -0.724878    -2.852081    4.585793    -4.318198    -1.591341    -2.425804    6.948975    -0.506357    0.051226    -9.910606    -9.353439    -0.972829    1.772862    1.074959    -2.167822    -0.275911    -1.333311    12.368684    8.458977    -12.594722    0.000000    0.000000    0.000000    0.000000    0.000000    0.000000    
-1.513195    81.969002    95.019791    0.893414    -6.160048    -174.525024    1.102105    -16.103716    0.888816    -3.789116    7.017525    0.965400    4.146548    6.641570    -6.185385    7.857618    5.292181    -6.050433    1.306308    17.707418    -3.638137    -44.226490    46.309944    -39.199368    -3.065621    -3.926074    -17.523888    16.394495    -4.129883    1.862296    -0.466522    6.872586    -1.057834    43.331936    -20.291302    29.249119    -45.000755    -37.989273    77.627441    -25.631874    -0.780672    -2.835722    4.595192    -4.290842    -1.711673    -2.432583    6.905312    -0.406357    0.041373    -9.891955    -9.329190    -0.974616    1.774213    1.076931    -2.159320    -0.268546    -1.335673    12.369608    8.461275    -12.585064    0.000000    0.000000    0.000000    0.000000    0.000000    0.000000    
-1.499996    81.967224    95.017242    0.892944    -6.153048    -174.531891    1.099470    -16.100580    0.903737    -3.830480    7.029977    0.983591    4.131325    6.620753    -6.184238    7.829640    5.394481    -6.058362    1.316398    17.730608    -3.620592    -44.259682    46.260387    -39.162674    -3.083401    -4.006401    -17.539707    16.366676    -4.211190    1.880737    -0.442174    6.850573    -1.020843    43.505234    -20.427774    29.516109    -45.047764    -37.844879    77.241783    -25.931631    -0.839053    -2.819436    4.604283    -4.263375    -1.830443    -2.439211    6.861821    -0.305833    0.031590    -9.873477    -9.305534    -0.976391    1.775212    1.078890    -2.151278    -0.261474    -1.337191    12.370613    8.463592    -12.575041    0.000000    0.000000    0.000000    0.000000    0.000000    0.000000    
-1.487001    81.965500    95.014938    0.892346    -6.146455    -174.541046    1.097113    -16.097153    0.918581    -3.870963    7.040936    1.001727    4.117398    6.599548    -6.182103    7.799985    5.501012    -6.065794    1.326390    17.753368    -3.604324    -44.293480    46.211571    -39.124500    -3.101482    -4.085891    -17.555891    16.340240    -4.291709    1.899105    -0.421026    6.826107    -0.982589    43.676338    -20.562601    29.791103    -45.094296    -37.696365    76.843391    -26.231934    -0.901657    -2.803599    4.613039    -4.236225    -1.947070    -2.445520    6.818701    -0.203857    0.021757    -9.855203    -9.283225    -0.978168    1.776275    1.080852    -2.143587    -0.255345    -1.337681    12.371514    8.466180    -12.564635    0.000000    0.000000    0.000000    0.000000    0.000000    0.000000    
-1.474175    81.963829    95.012794    0.891901    -6.139530    -174.553268    1.095425    -16.092682    0.933527    -3.910233    7.050141    1.019671    4.105197    6.578000    -6.178662    7.767755    5.613142    -6.072578    1.336065    17.775764    -3.589816    -44.328587    46.163200    -39.083855    -3.119803    -4.164513    -17.572384    16.315369    -4.371378    1.917433    -0.404094    6.798447    -0.942419    43.844807    -20.695934    30.077635    -45.139561    -37.541759    76.427528    -26.534248    -0.969762    -2.788337    4.622022    -4.208245    -2.061421    -2.451791    6.775604    -0.099796    0.011857    -9.837144    -9.262282    -0.979981    1.777239    1.082853    -2.135812    -0.249389    -1.336527    12.372196    8.468847    -12.553784    0.000000    0.000000    0.000000    0.000000    0.000000    0.000000    
-1.461710    81.962273    95.011009    0.890936    -6.133222    -174.569305    1.093922    -16.087881    0.948452    -3.948170    7.057110    1.037466    4.095618    6.556212    -6.173597    7.731975    5.731698    -6.078640    1.345634    17.797573    -3.577645    -44.365303    46.115761    -39.040375    -3.138368    -4.241776    -17.589176    16.292561    -4.449733    1.935784    -0.392213    6.766279    -0.899704    44.008690    -20.826382    30.376259    -45.183109    -37.380356    75.991890    -26.837732    -1.044647    -2.773646    4.630141    -4.180499    -2.172817    -2.457689    6.732886    0.006977    0.001860    -9.819408    -9.243307    -0.981755    1.777762    1.084812    -2.128953    -0.244878    -1.333698    12.372755    8.471962    -12.542336    0.000000    0.000000    0.000000    0.000000    0.000000    0.000000    
